<?xml version="1.0" encoding="UTF-8"?>
<!DOCTYPE svg PUBLIC "-//W3C//DTD SVG 1.1//EN" "http://www.w3.org/Graphics/SVG/1.1/DTD/svg11.dtd">
<!-- Creator: CorelDRAW 2018 (64 Bit) -->
<svg xmlns="http://www.w3.org/2000/svg" xml:space="preserve" width="210mm" height="297mm" version="1.1" style="shape-rendering:geometricPrecision; text-rendering:geometricPrecision; image-rendering:optimizeQuality; fill-rule:evenodd; clip-rule:evenodd"
viewBox="0 0 21000 29700"
 xmlns:xlink="http://www.w3.org/1999/xlink">
 <defs>
  <style type="text/css">
   <![CDATA[
    .fil0 {fill:#6AB085;fill-rule:nonzero}
   ]]>
  </style>
 </defs>
 <g id="Capa_x0020_1">
  <metadata id="CorelCorpID_0Corel-Layer"/>
  <g>
   <path class="fil0" d="M17764.14 24282.38l-75 0 0 0 0.69 -27.33 2.05 -27 3.39 -26.61 4.67 -26.19 5.94 -25.75 7.17 -25.25 8.37 -24.73 9.53 -24.17 10.64 -23.55 11.76 -22.95 12.8 -22.27 13.83 -21.58 14.83 -20.85 15.79 -20.08 16.7 -19.29 17.6 -18.47 18.47 -17.6 19.29 -16.7 20.08 -15.79 20.85 -14.83 21.58 -13.83 22.27 -12.8 22.93 -11.75 23.58 -10.66 24.16 -9.53 24.72 -8.36 25.25 -7.18 25.75 -5.94 26.2 -4.67 26.61 -3.39 27 -2.05 27.33 -0.69 0 75 -23.55 0.59 -23.2 1.77 -22.87 2.91 -22.5 4.01 -22.07 5.1 -21.67 6.16 -21.22 7.18 -20.74 8.17 -20.22 9.14 -19.69 10.09 -19.13 11 -18.54 11.89 -17.91 12.73 -17.26 13.57 -16.59 14.36 -15.87 15.14 -15.14 15.87 -14.36 16.59 -13.57 17.26 -12.73 17.91 -11.89 18.54 -11 19.13 -10.08 19.69 -9.14 20.23 -8.19 20.73 -7.17 21.21 -6.15 21.67 -5.1 22.09 -4.01 22.49 -2.91 22.87 -1.77 23.2 -0.59 23.55 0 0zm69.9 261.52l-73.7 -13.9 4.72 26.29 -4.45 -7.54 -4.33 -7.6 -4.22 -7.7 -4.1 -7.8 -3.95 -7.84 -3.85 -7.93 -3.7 -7.98 -3.58 -8.06 -3.46 -8.15 -3.31 -8.22 -3.18 -8.25 -3.06 -8.34 -2.92 -8.42 -2.78 -8.47 -2.64 -8.54 -2.49 -8.56 -2.37 -8.64 -2.22 -8.74 -2.07 -8.76 -1.92 -8.8 -1.79 -8.89 -1.63 -8.93 -1.48 -8.95 -1.33 -9.02 -1.18 -9.07 -1.04 -9.12 -0.87 -9.18 -0.71 -9.19 -0.57 -9.24 -0.4 -9.31 -0.23 -9.31 -0.09 -9.36 75 0 0.07 8.06 0.21 8.05 0.34 7.97 0.49 7.96 0.61 7.93 0.75 7.84 0.88 7.84 1.02 7.79 1.15 7.74 1.28 7.73 1.39 7.65 1.53 7.61 1.66 7.58 1.77 7.52 1.9 7.44 2.03 7.42 2.15 7.4 2.26 7.32 2.38 7.25 2.5 7.2 2.62 7.16 2.74 7.11 2.85 7.04 2.96 6.97 3.08 6.94 3.18 6.86 3.29 6.81 3.41 6.74 3.5 6.66 3.62 6.6 3.73 6.56 3.83 6.48 4.72 26.29zm-4.72 -26.29l7.37 12.24 -2.65 14.05 -4.72 -26.29zm-168.33 180.05l-8.02 74.56 -10.35 -71.92 7.16 -3.17 6.82 -3.39 6.53 -3.65 6.25 -3.85 5.97 -4.09 5.73 -4.29 5.47 -4.48 5.24 -4.68 5.01 -4.86 4.78 -5.03 4.58 -5.21 4.38 -5.36 4.17 -5.51 3.96 -5.63 3.79 -5.77 3.57 -5.84 3.39 -5.95 3.21 -6.03 3.02 -6.1 2.86 -6.15 2.67 -6.17 2.49 -6.18 2.35 -6.21 2.18 -6.15 2.01 -6.11 1.86 -6.09 1.72 -6.01 1.58 -5.91 1.43 -5.8 1.3 -5.69 1.18 -5.57 1.06 -5.37 73.7 13.9 -1.28 6.51 -1.42 6.69 -1.58 6.89 -1.75 7.08 -1.92 7.23 -2.1 7.35 -2.3 7.49 -2.51 7.63 -2.72 7.71 -2.93 7.75 -3.17 7.84 -3.43 7.89 -3.66 7.91 -3.94 7.92 -4.21 7.93 -4.51 7.91 -4.81 7.86 -5.11 7.79 -5.44 7.71 -5.77 7.61 -6.1 7.48 -6.46 7.35 -6.84 7.19 -7.21 6.98 -7.56 6.76 -7.97 6.54 -8.35 6.25 -8.75 5.97 -9.13 5.65 -9.53 5.31 -9.94 4.95 -10.3 4.55 -10.35 -71.92zm-8.02 74.56l-145.96 -15.69 135.61 -56.23 10.35 71.92zm321.1 -105.55l-40.6 63.06 36.52 2.28 -12.63 5.72 -12.86 5.17 -13.05 4.68 -13.19 4.21 -13.3 3.77 -13.37 3.36 -13.4 2.96 -13.37 2.61 -13.34 2.27 -13.24 1.96 -13.11 1.67 -12.95 1.4 -12.74 1.15 -12.47 0.91 -12.19 0.71 -11.87 0.51 -11.48 0.35 -11.08 0.19 -10.61 0.05 -10.1 -0.06 -9.58 -0.16 -8.99 -0.25 -8.32 -0.3 -7.71 -0.35 -6.96 -0.38 -6.17 -0.38 -5.46 -0.38 -4.56 -0.36 -3.66 -0.31 -2.73 -0.26 -1.64 -0.16 -0.89 -0.09 8.02 -74.56 0.15 0.01 1.42 0.14 2.25 0.2 3.18 0.27 4.02 0.32 4.78 0.34 5.65 0.34 6.34 0.36 6.99 0.31 7.7 0.28 8.23 0.23 8.78 0.14 9.3 0.06 9.73 -0.05 10.14 -0.17 10.5 -0.31 10.81 -0.47 11.07 -0.65 11.31 -0.83 11.46 -1.03 11.57 -1.24 11.65 -1.49 11.68 -1.72 11.64 -1.99 11.57 -2.25 11.44 -2.54 11.25 -2.82 11.04 -3.13 10.77 -3.43 10.43 -3.74 10.06 -4.05 9.65 -4.36 36.52 2.28zm-36.52 -2.28l18.9 -9.07 17.62 11.35 -36.52 -2.28zm283.42 74.84l0 75 0 0 -9.9 -0.09 -9.87 -0.28 -9.8 -0.45 -9.77 -0.62 -9.71 -0.81 -9.67 -0.96 -9.63 -1.16 -9.59 -1.32 -9.51 -1.5 -9.44 -1.65 -9.4 -1.82 -9.36 -2 -9.28 -2.15 -9.21 -2.31 -9.15 -2.48 -9.08 -2.62 -9.05 -2.8 -8.93 -2.94 -8.87 -3.09 -8.83 -3.26 -8.73 -3.39 -8.65 -3.55 -8.59 -3.7 -8.49 -3.83 -8.43 -3.98 -8.34 -4.12 -8.26 -4.28 -8.14 -4.38 -8.1 -4.54 -8.02 -4.69 -7.88 -4.79 -7.82 -4.94 40.6 -63.06 6.72 4.24 6.82 4.15 6.84 4.01 6.94 3.88 7.04 3.8 7.1 3.66 7.16 3.54 7.21 3.42 7.31 3.29 7.37 3.18 7.43 3.03 7.49 2.93 7.55 2.78 7.63 2.65 7.69 2.54 7.71 2.38 7.8 2.26 7.87 2.12 7.91 1.99 7.96 1.85 8 1.7 8.06 1.56 8.14 1.43 8.17 1.28 8.21 1.14 8.25 0.98 8.31 0.84 8.37 0.69 8.39 0.54 8.46 0.39 8.47 0.24 8.52 0.07 0 0zm456.84 -456.85l75 0 0 0 -0.69 27.33 -2.05 27 -3.39 26.61 -4.67 26.2 -5.94 25.75 -7.17 25.25 -8.38 24.72 -9.52 24.16 -10.65 23.57 -11.75 22.95 -12.81 22.27 -13.82 21.57 -14.84 20.86 -15.78 20.08 -16.71 19.29 -17.6 18.47 -18.47 17.6 -19.28 16.7 -20.09 15.79 -20.85 14.83 -21.58 13.83 -22.27 12.8 -22.93 11.75 -23.58 10.66 -24.16 9.53 -24.72 8.36 -25.25 7.18 -25.75 5.94 -26.2 4.67 -26.61 3.39 -27 2.05 -27.33 0.69 0 -75 23.55 -0.59 23.2 -1.77 22.87 -2.91 22.5 -4.01 22.07 -5.1 21.67 -6.16 21.22 -7.18 20.74 -8.17 20.22 -9.14 19.69 -10.09 19.13 -11 18.54 -11.89 17.91 -12.73 17.27 -13.57 16.58 -14.36 15.87 -15.14 15.14 -15.87 14.37 -16.59 13.56 -17.26 12.74 -17.92 11.88 -18.53 11.01 -19.13 10.07 -19.69 9.15 -20.23 8.18 -20.74 7.18 -21.22 6.15 -21.65 5.1 -22.09 4.01 -22.5 2.91 -22.87 1.77 -23.2 0.59 -23.55 0 0zm-456.84 -456.84l0 -75 0 0 27.33 0.69 27 2.05 26.61 3.39 26.2 4.67 25.75 5.94 25.25 7.18 24.72 8.36 24.16 9.53 23.58 10.66 22.93 11.75 22.27 12.8 21.58 13.83 20.85 14.83 20.09 15.79 19.28 16.7 18.47 17.6 17.6 18.47 16.71 19.29 15.78 20.08 14.84 20.85 13.82 21.58 12.81 22.27 11.75 22.95 10.65 23.55 9.52 24.17 8.38 24.72 7.17 25.26 5.94 25.75 4.67 26.19 3.39 26.61 2.05 27 0.69 27.33 -75 0 -0.59 -23.55 -1.77 -23.2 -2.91 -22.87 -4.01 -22.49 -5.1 -22.09 -6.15 -21.66 -7.18 -21.22 -8.18 -20.73 -9.15 -20.23 -10.07 -19.69 -11.01 -19.13 -11.88 -18.54 -12.74 -17.91 -13.56 -17.26 -14.37 -16.59 -15.14 -15.87 -15.87 -15.14 -16.58 -14.36 -17.27 -13.57 -17.91 -12.73 -18.54 -11.89 -19.13 -11 -19.69 -10.09 -20.22 -9.14 -20.74 -8.17 -21.22 -7.18 -21.67 -6.16 -22.07 -5.1 -22.5 -4.01 -22.87 -2.91 -23.2 -1.77 -23.55 -0.59 0 0z"/>
  </g>
 </g>
</svg>
